<svg width="136" height="153" viewBox="0 0 136 153" fill="none" xmlns="http://www.w3.org/2000/svg">
<path d="M52.9981 60.2555V54.2932C50.918 53.9655 48.8172 53.786 46.7115 53.756C26.3251 53.7127 8.27663 66.8578 2.15461 86.2061C-3.96741 105.554 3.25892 126.617 19.9923 138.201C13.8561 131.667 9.75187 123.505 8.17491 114.701C6.59795 105.897 7.61572 96.8265 11.1054 88.5852C14.595 80.3438 20.4073 73.2836 27.8408 68.2567C35.2743 63.2298 44.0111 60.4512 52.9967 60.2561L52.9981 60.2555Z" fill="#F36B4A"/>
<path d="M54.1282 127.792C65.5263 127.777 74.8954 118.842 75.3945 107.512V6.40207H93.9584C93.5796 4.28929 93.3989 2.14605 93.4185 0L68.0267 0V101.012C67.6044 112.4 58.213 121.421 46.7604 121.439C43.338 121.41 39.9714 120.573 36.9379 118.996C38.9039 121.706 41.4859 123.916 44.4733 125.444C47.4607 126.973 50.7689 127.778 54.1282 127.792ZM128.633 40.7075V35.0876C121.801 35.0902 115.12 33.0843 109.43 29.3215C114.418 35.0916 121.159 39.0884 128.633 40.7075Z" fill="#F36B4A"/>
<path d="M109.43 29.3223C103.824 22.9711 100.734 14.8064 100.737 6.35352H93.9584C94.8339 11.027 96.6573 15.4739 99.3173 19.423C101.977 23.372 105.418 26.7403 109.43 29.3223ZM46.7115 79.0219C41.9576 79.046 37.3483 80.6507 33.6163 83.5808C29.8842 86.5109 27.2438 90.5983 26.1146 95.1932C24.9855 99.7881 25.4325 104.627 27.3846 108.94C29.3367 113.253 32.6819 116.793 36.8882 118.997C34.5884 115.837 33.2112 112.106 32.9087 108.217C32.6062 104.327 33.3903 100.43 35.1742 96.9562C36.9581 93.4822 39.6724 90.5665 43.0173 88.5312C46.3622 86.496 50.2075 85.4204 54.1282 85.4233C56.2597 85.4511 58.3763 85.7812 60.4141 86.4037V60.696C58.3331 60.3856 56.2325 60.2223 54.1282 60.2075H52.9981V79.7547C50.9494 79.208 48.8317 78.9611 46.7115 79.0219Z" fill="#ECA683"/>
<path d="M93.4185 100.231V48.8696C103.696 56.2061 116.033 60.1384 128.682 60.1094V40.5622C121.209 38.9919 114.452 35.0471 109.43 29.3223C105.418 26.7403 101.977 23.372 99.3173 19.423C96.6573 15.4739 94.8339 11.027 93.9584 6.35352H75.3945V107.514C75.2137 111.917 73.6589 116.155 70.9461 119.639C68.2333 123.122 64.4973 125.679 60.2572 126.952C56.0171 128.226 51.4836 128.154 47.2867 126.746C43.0898 125.338 39.4379 122.664 36.8386 119.095C32.6315 116.892 29.2857 113.352 27.3331 109.039C25.3805 104.725 24.9332 99.8861 26.0624 95.2908C27.1916 90.6955 29.8324 86.6077 33.565 83.6775C37.2975 80.7473 41.9075 79.1429 46.6618 79.1194C48.7941 79.1383 50.9121 79.4677 52.9484 80.0971V60.5492C43.9145 60.7016 35.1203 63.4661 27.6381 68.5057C20.1559 73.5452 14.309 80.6421 10.8102 88.9309C7.31151 97.2197 6.31213 106.342 7.93396 115.186C9.55579 124.031 13.7287 132.214 19.944 138.739C27.8383 144.044 37.1873 146.793 46.7115 146.608C72.4684 146.608 93.3641 125.859 93.4185 100.231Z" fill="#FFF7F1"/>
</svg>
