<svg width="131" height="88" viewBox="0 0 131 88" fill="none" xmlns="http://www.w3.org/2000/svg">
<path d="M68.4022 87.8847L41.5261 87.4074C32.8242 87.241 24.1007 87.5731 15.5694 85.8498C2.59136 83.2751 1.67195 70.6509 0.709889 60.0616C-0.615739 45.1744 -0.102549 30.017 2.39908 15.254C3.81134 6.97044 9.36913 2.02757 17.9641 1.4897C46.9782 -0.462342 76.1854 -0.231005 105.135 0.679691C108.193 0.763177 111.271 1.21948 114.286 1.73888C129.168 4.27213 129.531 18.5781 130.495 30.6211C131.457 42.7884 131.051 55.0181 129.212 67.1025C127.737 77.108 124.915 85.4987 113.003 86.3087C98.0786 87.3679 83.4967 88.2206 68.5302 87.9491C68.5309 87.8847 68.4449 87.8847 68.4022 87.8847ZM52.6017 62.5535C63.8485 56.2825 74.8807 50.116 86.0633 43.8871C74.7954 37.6161 63.7842 31.4496 52.6017 25.2207V62.5535Z" fill="white"/>
</svg>
