<svg width="681" height="165" viewBox="0 0 681 165" fill="none" xmlns="http://www.w3.org/2000/svg">
<path d="M4.0021 57.9697C1.79296 57.9697 0.00210242 59.7606 0.0021021 61.9697C0.00210214 64.1788 1.79296 65.9697 4.0021 65.9697L4.0021 57.9697ZM680.312 115.717C680.984 113.612 679.823 111.361 677.719 110.69L643.424 99.74C641.32 99.068 639.069 100.229 638.397 102.334C637.725 104.438 638.886 106.689 640.991 107.361L671.475 117.094L661.742 147.578C661.07 149.682 662.231 151.933 664.336 152.605C666.44 153.277 668.691 152.116 669.363 150.011L680.312 115.717ZM537.34 149.527L534.994 152.767L537.34 149.527ZM599.542 154.209L597.708 150.655L599.542 154.209ZM431.452 9.67646L435.338 10.6276L437.24 2.85702L433.355 1.90591L431.452 9.67646ZM408.916 56.5556L406.57 59.7957L408.916 56.5556ZM425.627 61.9697L425.627 57.9697L425.627 61.9697ZM433.355 1.90591L429.469 0.954791L427.567 8.72535L431.452 9.67646L433.355 1.90591ZM9.858 65.9697L13.858 65.9697L13.858 57.9697L9.858 57.9697L9.858 65.9697ZM21.5698 57.9697L17.5698 57.9697L17.5698 65.9697L21.5698 65.9697L21.5698 57.9697ZM33.2816 65.9697L37.2816 65.9697L37.2816 57.9697L33.2816 57.9697L33.2816 65.9697ZM44.9934 57.9697L40.9934 57.9697L40.9934 65.9697L44.9934 65.9697L44.9934 57.9697ZM56.7052 65.9697L60.7052 65.9697L60.7052 57.9697L56.7052 57.9697L56.7052 65.9697ZM68.417 57.9697L64.417 57.9697L64.417 65.9697L68.417 65.9697L68.417 57.9697ZM80.1288 65.9697L84.1288 65.9697L84.1288 57.9697L80.1288 57.9697L80.1288 65.9697ZM91.8406 57.9697L87.8406 57.9697L87.8406 65.9697L91.8406 65.9697L91.8406 57.9697ZM103.552 65.9697L107.552 65.9697L107.552 57.9697L103.552 57.9697L103.552 65.9697ZM115.264 57.9697L111.264 57.9697L111.264 65.9697L115.264 65.9697L115.264 57.9697ZM126.976 65.9697L130.976 65.9697L130.976 57.9697L126.976 57.9697L126.976 65.9697ZM138.688 57.9697L134.688 57.9697L134.688 65.9697L138.688 65.9697L138.688 57.9697ZM150.4 65.9697L154.4 65.9697L154.4 57.9697L150.4 57.9697L150.4 65.9697ZM162.111 57.9697L158.111 57.9697L158.111 65.9697L162.111 65.9697L162.111 57.9697ZM173.823 65.9697L177.823 65.9697L177.823 57.9697L173.823 57.9697L173.823 65.9697ZM185.535 57.9697L181.535 57.9697L181.535 65.9697L185.535 65.9697L185.535 57.9697ZM197.247 65.9697L201.247 65.9697L201.247 57.9697L197.247 57.9697L197.247 65.9697ZM208.959 57.9697L204.959 57.9697L204.959 65.9697L208.959 65.9697L208.959 57.9697ZM220.671 65.9697L224.67 65.9697L224.671 57.9697L220.67 57.9697L220.671 65.9697ZM232.382 57.9697L228.382 57.9697L228.382 65.9697L232.382 65.9697L232.382 57.9697ZM244.094 65.9697L248.094 65.9697L248.094 57.9697L244.094 57.9697L244.094 65.9697ZM255.806 57.9697L251.806 57.9697L251.806 65.9697L255.806 65.9697L255.806 57.9697ZM267.518 65.9697L271.518 65.9697L271.518 57.9697L267.518 57.9697L267.518 65.9697ZM279.23 57.9697L275.23 57.9697L275.23 65.9697L279.23 65.9697L279.23 57.9697ZM290.941 65.9697L294.941 65.9697L294.941 57.9697L290.941 57.9697L290.941 65.9697ZM302.653 57.9697L298.653 57.9697L298.653 65.9697L302.653 65.9697L302.653 57.9697ZM314.365 65.9697L318.365 65.9697L318.365 57.9697L314.365 57.9697L314.365 65.9697ZM326.077 57.9697L322.077 57.9697L322.077 65.9697L326.077 65.9697L326.077 57.9697ZM337.788 65.9697L341.788 65.9697L341.788 57.9697L337.788 57.9697L337.788 65.9697ZM349.5 57.9697L345.5 57.9697L345.5 65.9697L349.5 65.9697L349.5 57.9697ZM361.212 65.9697L365.212 65.9697L365.212 57.9697L361.212 57.9697L361.212 65.9697ZM372.924 57.9697L368.924 57.9697L368.924 65.9697L372.924 65.9697L372.924 57.9697ZM384.636 65.9697L388.636 65.9697L388.636 57.9697L384.636 57.9697L384.636 65.9697ZM396.347 57.9697L392.347 57.9697L392.347 65.9697L396.347 65.9697L396.347 57.9697ZM408.059 65.9697L412.059 65.9697L412.059 57.9697L408.059 57.9697L408.059 65.9697ZM419.771 57.9697L415.771 57.9697L415.771 65.9697L419.771 65.9697L419.771 57.9697ZM433.38 65.1484L437.286 64.2867L435.562 56.4745L431.656 57.3362L433.38 65.1484ZM442.058 52.0615L439.082 54.7344L444.428 60.6861L447.404 58.0131L442.058 52.0615ZM456.09 44.9707L457.446 41.2078L449.92 38.4944L448.564 42.2573L456.09 44.9707ZM449.995 30.3921L450.418 34.3697L458.373 33.5237L457.95 29.5462L449.995 30.3921ZM452.615 14.8125L450.36 11.5086L443.753 16.0184L446.007 19.3222L452.615 14.8125ZM437.158 11.7254L440.747 13.4912L444.279 6.31283L440.69 4.54708L437.158 11.7254ZM426.016 0.89166L422.017 0.773012L421.78 8.76949L425.778 8.88814L426.016 0.89166ZM414.928 11.1817L418.523 9.42793L415.016 2.23784L411.421 3.9916L414.928 11.1817ZM399.962 13.4635L397.538 16.6459L403.903 21.4924L406.327 18.31L399.962 13.4635ZM401.577 28.5759L402.434 24.6688L394.619 22.9549L393.762 26.8621L401.577 28.5759ZM393.961 41.7277L394.952 45.6031L402.703 43.622L401.712 39.7466L393.961 41.7277ZM406.988 49.5011L404.309 46.5305L398.368 51.8879L401.046 54.8585L406.988 49.5011ZM411.157 63.1161L414.397 65.4617L419.088 58.9816L415.848 56.636L411.157 63.1161ZM425.021 63.2768L421.781 60.9312L417.09 67.4113L420.33 69.7569L425.021 63.2768ZM429.503 76.3978L432.743 78.7434L437.435 72.2633L434.195 69.9176L429.503 76.3978ZM443.368 76.5585L440.128 74.2128L435.436 80.693L438.676 83.0386L443.368 76.5585ZM447.85 89.6794L451.09 92.025L455.781 85.5449L452.541 83.1993L447.85 89.6794ZM461.714 89.8401L458.474 87.4945L453.783 93.9746L457.023 96.3202L461.714 89.8401ZM466.196 102.961L469.436 105.307L474.127 98.8266L470.887 96.4809L466.196 102.961ZM480.06 103.122L476.82 100.776L472.129 107.256L475.369 109.602L480.06 103.122ZM484.542 116.243L487.782 118.588L492.473 112.108L489.233 109.763L484.542 116.243ZM498.407 116.403L495.166 114.058L490.475 120.538L493.715 122.884L498.407 116.403ZM502.888 129.524L506.128 131.87L510.82 125.39L507.58 123.044L502.888 129.524ZM516.753 129.685L513.513 127.339L508.821 133.82L512.062 136.165L516.753 129.685ZM521.235 142.806L524.475 145.152L529.166 138.671L525.926 136.326L521.235 142.806ZM535.099 142.967L531.859 140.621L527.168 147.101L530.408 149.447L535.099 142.967ZM539.875 155.97L543.316 158.009L547.394 151.127L543.953 149.088L539.875 155.97ZM553.161 153.455L549.404 152.08L546.655 159.593L550.411 160.968L553.161 153.455ZM561.685 163.952L565.629 164.617L566.958 156.728L563.014 156.064L561.685 163.952ZM573.179 156.829L569.18 156.895L569.313 164.894L573.312 164.828L573.179 156.829ZM584.906 163.564L588.825 162.767L587.232 154.928L583.312 155.724L584.906 163.564ZM593.07 152.785L589.362 154.286L592.364 161.701L596.072 160.2L593.07 152.785ZM606.186 155.282L609.741 153.448L606.073 146.339L602.518 148.173L606.186 155.282ZM612.138 143.209L608.583 145.043L612.252 152.153L615.806 150.319L612.138 143.209ZM625.426 145.355L628.981 143.521L625.313 136.411L621.758 138.246L625.426 145.355ZM631.378 133.282L627.823 135.116L631.492 142.225L635.046 140.391L631.378 133.282ZM644.666 135.428L648.221 133.593L644.553 126.484L640.998 128.318L644.666 135.428ZM650.618 123.355L647.063 125.189L650.732 132.298L654.286 130.464L650.618 123.355ZM663.906 125.5L667.461 123.666L663.793 116.557L660.238 118.391L663.906 125.5ZM669.858 113.427L666.303 115.261L669.971 122.371L673.526 120.537L669.858 113.427ZM4.0021 65.9697L9.858 65.9697L9.858 57.9697L4.0021 57.9697L4.0021 65.9697ZM21.5698 65.9697L33.2816 65.9697L33.2816 57.9697L21.5698 57.9697L21.5698 65.9697ZM44.9934 65.9697L56.7052 65.9697L56.7052 57.9697L44.9934 57.9697L44.9934 65.9697ZM68.417 65.9697L80.1288 65.9697L80.1288 57.9697L68.417 57.9697L68.417 65.9697ZM91.8406 65.9697L103.552 65.9697L103.552 57.9697L91.8406 57.9697L91.8406 65.9697ZM115.264 65.9697L126.976 65.9697L126.976 57.9697L115.264 57.9697L115.264 65.9697ZM138.688 65.9697L150.4 65.9697L150.4 57.9697L138.688 57.9697L138.688 65.9697ZM162.111 65.9697L173.823 65.9697L173.823 57.9697L162.111 57.9697L162.111 65.9697ZM185.535 65.9697L197.247 65.9697L197.247 57.9697L185.535 57.9697L185.535 65.9697ZM208.959 65.9697L220.671 65.9697L220.67 57.9697L208.959 57.9697L208.959 65.9697ZM232.382 65.9697L244.094 65.9697L244.094 57.9697L232.382 57.9697L232.382 65.9697ZM255.806 65.9697L267.518 65.9697L267.518 57.9697L255.806 57.9697L255.806 65.9697ZM279.23 65.9697L290.941 65.9697L290.941 57.9697L279.23 57.9697L279.23 65.9697ZM302.653 65.9697L314.365 65.9697L314.365 57.9697L302.653 57.9697L302.653 65.9697ZM326.077 65.9697L337.788 65.9697L337.788 57.9697L326.077 57.9697L326.077 65.9697ZM349.5 65.9697L361.212 65.9697L361.212 57.9697L349.5 57.9697L349.5 65.9697ZM372.924 65.9697L384.636 65.9697L384.636 57.9697L372.924 57.9697L372.924 65.9697ZM396.347 65.9697L408.059 65.9697L408.059 57.9697L396.347 57.9697L396.347 65.9697ZM419.771 65.9697L425.627 65.9697L425.627 57.9697L419.771 57.9697L419.771 65.9697ZM425.627 65.9697C428.35 65.9697 430.938 65.687 433.38 65.1484L431.656 57.3362C429.803 57.745 427.794 57.9697 425.627 57.9697L425.627 65.9697ZM447.404 58.0131C451.418 54.4074 454.323 49.869 456.09 44.9707L448.564 42.2573C447.209 46.0141 445.013 49.408 442.058 52.0615L447.404 58.0131ZM457.95 29.5462C457.4 24.3684 455.657 19.2693 452.615 14.8125L446.007 19.3222C448.246 22.6021 449.573 26.421 449.995 30.3921L457.95 29.5462ZM440.69 4.54708C438.446 3.44332 436 2.5534 433.355 1.90591L431.452 9.67646C433.558 10.1918 435.455 10.8878 437.158 11.7254L440.69 4.54708ZM433.355 1.90591C430.853 1.29344 428.401 0.962439 426.016 0.89166L425.778 8.88814C427.584 8.94173 429.479 9.19325 431.452 9.67646L433.355 1.90591ZM411.421 3.9916C406.829 6.23141 402.952 9.53684 399.962 13.4635L406.327 18.31C408.612 15.309 411.533 12.8378 414.928 11.1817L411.421 3.9916ZM393.762 26.8621C392.705 31.6829 392.696 36.7782 393.961 41.7277L401.712 39.7466C400.777 36.0869 400.769 32.2603 401.577 28.5759L393.762 26.8621ZM401.046 54.8585C402.644 56.6306 404.484 58.2853 406.57 59.7957L411.262 53.3156C409.616 52.1239 408.198 50.843 406.988 49.5011L401.046 54.8585ZM406.57 59.7957L411.157 63.1161L415.848 56.636L411.262 53.3156L406.57 59.7957ZM420.33 69.7569L429.503 76.3978L434.195 69.9176L425.021 63.2768L420.33 69.7569ZM438.676 83.0386L447.85 89.6794L452.541 83.1993L443.368 76.5585L438.676 83.0386ZM457.023 96.3202L466.196 102.961L470.887 96.4809L461.714 89.8401L457.023 96.3202ZM475.369 109.602L484.542 116.243L489.233 109.763L480.06 103.122L475.369 109.602ZM493.715 122.884L502.888 129.524L507.58 123.044L498.407 116.403L493.715 122.884ZM512.062 136.165L521.235 142.806L525.926 136.326L516.753 129.685L512.062 136.165ZM530.408 149.447L534.994 152.767L539.686 146.287L535.099 142.967L530.408 149.447ZM534.994 152.767C536.581 153.916 538.21 154.984 539.875 155.97L543.953 149.088C542.497 148.225 541.073 147.292 539.686 146.287L534.994 152.767ZM550.411 160.968C554.084 162.312 557.859 163.308 561.685 163.952L563.014 156.064C559.669 155.5 556.37 154.629 553.161 153.455L550.411 160.968ZM573.312 164.828C577.192 164.763 581.073 164.343 584.906 163.564L583.312 155.724C579.963 156.405 576.571 156.772 573.179 156.829L573.312 164.828ZM596.072 160.2C597.866 159.474 599.636 158.662 601.376 157.764L597.708 150.655C596.186 151.44 594.638 152.15 593.07 152.785L596.072 160.2ZM601.376 157.764L606.186 155.282L602.518 148.173L597.708 150.655L601.376 157.764ZM615.806 150.319L625.426 145.355L621.758 138.246L612.138 143.209L615.806 150.319ZM635.046 140.391L644.666 135.428L640.998 128.318L631.378 133.282L635.046 140.391ZM654.286 130.464L663.906 125.5L660.238 118.391L650.618 123.355L654.286 130.464ZM673.526 120.537L678.336 118.055L674.668 110.945L669.858 113.427L673.526 120.537Z" fill="#ECA683"/>
</svg>
