<svg xmlns="http://www.w3.org/2000/svg" version="1.1" xmlns:xlink="http://www.w3.org/1999/xlink" xmlns:svgjs="http://svgjs.dev/svgjs" width="2000" height="800" preserveAspectRatio="none" viewBox="0 0 2000 800"><g mask="url(&quot;#SvgjsMask1189&quot;)" fill="none"><rect width="2000" height="800" x="0" y="0" fill="url(&quot;#SvgjsLinearGradient1190&quot;)"></rect><path d="M2000 0L1306.17 0L2000 94.82z" fill="rgba(255, 255, 255, .1)"></path><path d="M1306.17 0L2000 94.82L2000 427.39L729.7800000000001 0z" fill="rgba(255, 255, 255, .075)"></path><path d="M729.78 0L2000 427.39L2000 597.8L716.6999999999999 0z" fill="rgba(255, 255, 255, .05)"></path><path d="M716.7 0L2000 597.8L2000 669.8699999999999L667.3100000000001 0z" fill="rgba(255, 255, 255, .025)"></path><path d="M0 800L872.23 800L0 559.8199999999999z" fill="rgba(0, 0, 0, .1)"></path><path d="M0 559.8199999999999L872.23 800L943.03 800L0 289.24999999999994z" fill="rgba(0, 0, 0, .075)"></path><path d="M0 289.25L943.03 800L1027.7 800L0 278.44z" fill="rgba(0, 0, 0, .05)"></path><path d="M0 278.44000000000005L1027.7 800L1343.35 800L0 126.93000000000006z" fill="rgba(0, 0, 0, .025)"></path></g><defs><mask id="SvgjsMask1189"><rect width="2000" height="800" fill="#ffffff"></rect></mask><linearGradient x1="15%" y1="137.5%" x2="85%" y2="-37.5%" gradientUnits="userSpaceOnUse" id="SvgjsLinearGradient1190"><stop stop-color="rgba(255, 255, 255, 1)" offset="0"></stop><stop stop-color="rgba(79, 70, 229, 1)" offset="1"></stop></linearGradient></defs></svg>