<svg xmlns="http://www.w3.org/2000/svg" height="40" viewBox="0 -960 960 960" width="40" fill="#582D3E"><path d="m360.718-501.383 90.59-90.795-78.411-78.617-47.051 47.308-35.384-35.384 47.103-47.051-76.155-75.745-90.795 90.795 190.103 189.489Zm329.359 330.384 90.795-91.206-76.155-76.155-47.052 47.103-35.383-35.384 46.846-47.051-77.565-77.616-90.59 90.59 189.104 189.719Zm10.769-598.745 69.513 69.514-69.513-69.514ZM281.308-140.001H140.001v-141.307l184.718-184.718-224.718-224.846L260.743-852.69l226.513 225.718 177.975-178.181q7.821-7.82 17.077-11.333 9.256-3.513 19.102-3.513 9.589 0 18.845 3.513 9.257 3.513 17.077 11.333l67.821 69.18q7.82 7.821 11.141 17.077 3.32 9.256 3.32 18.845 0 9.846-3.32 18.807-3.321 8.962-11.141 16.782L627.947-486.923 852.69-261.41 691.538-100.412 466.436-325.13 281.308-140.001Zm-91.052-50.255h69.309l393.051-393.257-69.513-69.513-392.847 393.461v69.309Zm427.642-428.103-34.795-34.667 69.513 69.513-34.718-34.846Z"/></svg>