<?xml version="1.0" standalone="no"?>
<!DOCTYPE svg PUBLIC "-//W3C//DTD SVG 20010904//EN"
 "http://www.w3.org/TR/2001/REC-SVG-20010904/DTD/svg10.dtd">
<svg version="1.0" xmlns="http://www.w3.org/2000/svg"
 width="960.000000pt" height="960.000000pt" viewBox="0 0 960.000000 960.000000"
 preserveAspectRatio="xMidYMid meet">
<metadata>
Created by potrace 1.14, written by Peter Selinger 2001-2017
</metadata>
<g transform="translate(0.000000,960.000000) scale(0.100000,-0.100000)"
fill="#000000" stroke="none">
<path d="M7520 9189 c-58 -10 -94 -17 -97 -20 -2 -1 -7 -3 -13 -4 -5 -1 -12
-4 -15 -5 -3 -1 -8 -3 -12 -4 -5 -1 -14 -5 -20 -9 -7 -5 -13 -5 -13 -2 0 8
-144 -67 -148 -77 -2 -5 -8 -8 -13 -8 -18 0 -118 -80 -189 -152 -136 -136
-250 -304 -359 -529 -51 -106 -78 -166 -86 -189 -2 -5 -9 -22 -50 -120 -46
-108 -48 -115 -49 -120 -2 -9 -28 -75 -44 -110 -9 -19 -16 -37 -17 -40 -1 -9
-48 -124 -62 -150 -7 -14 -13 -31 -13 -37 0 -7 -5 -13 -12 -13 -6 0 -9 -3 -5
-6 12 -12 -150 -303 -208 -373 -44 -54 -111 -127 -135 -146 -14 -11 -33 -28
-42 -37 -10 -10 -20 -18 -23 -18 -7 0 -64 -40 -83 -57 -7 -7 -20 -13 -28 -13
-8 0 -14 -5 -14 -10 0 -6 -10 -14 -23 -19 -13 -5 -44 -23 -69 -40 -25 -17 -50
-31 -56 -31 -6 0 -12 -4 -14 -8 -1 -4 -50 -37 -108 -72 -58 -35 -106 -68 -108
-72 -2 -4 -8 -8 -14 -8 -6 0 -25 -10 -42 -23 -17 -13 -39 -26 -48 -30 -10 -3
-18 -10 -18 -15 0 -5 -13 -15 -30 -22 -16 -7 -30 -16 -30 -21 0 -5 -12 -15
-27 -23 -16 -8 -43 -28 -60 -45 -18 -16 -33 -27 -33 -24 0 3 -11 -5 -23 -18
-13 -13 -57 -56 -98 -94 -116 -111 -212 -236 -271 -355 -13 -25 -25 -47 -28
-50 -11 -11 -76 -199 -84 -245 -3 -14 -7 -33 -10 -43 -3 -9 -7 -37 -10 -62 -3
-25 -8 -56 -11 -70 -6 -27 -7 -249 -2 -317 4 -46 4 -45 -69 -19 -23 8 -52 17
-65 19 -13 2 -31 7 -39 10 -8 3 -31 8 -50 11 -19 2 -35 5 -35 6 0 9 -275 14
-315 5 -14 -3 -45 -8 -70 -11 -25 -3 -84 -19 -132 -34 -49 -15 -88 -25 -88
-21 0 3 -4 1 -8 -6 -4 -6 -14 -13 -21 -15 -8 -2 -49 -21 -90 -42 -42 -21 -86
-44 -98 -50 -13 -6 -23 -14 -23 -18 0 -5 -7 -8 -15 -8 -8 0 -15 -4 -15 -10 0
-5 -4 -10 -10 -10 -9 0 -27 -13 -64 -45 -6 -5 -33 -28 -61 -50 -51 -41 -206
-194 -260 -256 -62 -71 -91 -106 -120 -144 -16 -21 -38 -47 -48 -57 -9 -10
-14 -18 -11 -18 3 0 -11 -20 -30 -44 -20 -23 -36 -48 -36 -54 0 -6 -4 -12 -9
-14 -9 -3 -98 -139 -149 -228 -154 -267 -315 -664 -357 -880 -4 -19 -10 -39
-13 -45 -3 -5 -7 -21 -7 -35 -1 -14 -5 -38 -9 -55 -10 -47 -15 -76 -22 -125
-3 -25 -8 -53 -10 -64 -18 -95 -20 -187 -14 -721 0 -66 -1 -129 -3 -140 -3
-11 -8 -45 -13 -75 -8 -58 -10 -67 -14 -75 -1 -3 -3 -8 -4 -12 -14 -64 -55
-174 -69 -184 -5 -3 -9 -9 -9 -12 0 -18 -11 -47 -18 -47 -5 0 -12 -10 -16 -22
-3 -12 -17 -33 -30 -47 -13 -14 -24 -31 -24 -38 0 -7 -4 -13 -8 -13 -5 0 -31
-22 -58 -48 -80 -77 -209 -142 -312 -156 -115 -17 -165 -21 -320 -30 -48 -3
-139 -8 -202 -12 -63 -4 -134 -7 -157 -8 -24 -1 -43 -3 -43 -6 0 -3 -17 -6
-38 -6 -43 -1 -147 -11 -147 -14 0 -1 -17 -3 -37 -6 -35 -4 -95 -16 -143 -27
-42 -10 -180 -59 -185 -65 -3 -4 -22 -20 -43 -35 -49 -37 -71 -80 -70 -142 2
-111 80 -211 203 -258 40 -15 85 -29 101 -30 16 -1 29 -4 29 -7 0 -12 278 -16
400 -6 78 6 157 14 200 21 14 2 40 6 58 9 18 3 52 8 75 11 23 4 65 11 92 17
28 5 61 11 75 13 14 1 50 7 80 14 71 15 98 20 135 27 17 2 47 9 67 15 20 5 40
9 45 8 4 -1 15 0 23 4 15 6 96 23 140 31 14 2 36 7 50 10 14 3 36 8 50 10 14
3 70 14 125 26 93 19 120 24 185 35 14 2 41 7 60 11 19 3 46 8 60 9 14 2 48 7
75 12 63 9 278 10 325 1 78 -15 202 -54 250 -78 19 -9 69 -34 110 -54 65 -31
140 -72 230 -123 219 -126 497 -263 542 -266 10 -1 18 -5 18 -9 0 -4 7 -8 15
-8 9 0 44 -9 78 -20 34 -11 71 -21 82 -23 11 -2 31 -7 45 -10 24 -6 59 -11
145 -23 49 -6 317 -5 365 1 19 3 62 7 95 10 33 2 71 7 85 10 14 3 43 7 65 10
44 5 64 9 175 30 108 21 143 27 158 28 6 0 12 4 12 8 0 4 8 6 18 4 9 -1 21 0
27 3 5 3 16 7 25 7 8 1 56 12 105 25 50 12 99 24 110 26 22 4 200 52 200 54 0
1 7 3 15 5 8 1 35 9 60 16 25 7 47 13 50 14 3 1 25 7 50 14 25 7 50 14 55 15
12 2 84 25 105 33 8 4 19 5 24 4 4 -1 13 2 20 8 6 5 40 17 76 26 36 10 77 24
93 32 15 7 27 12 27 9 0 -2 71 21 158 51 86 30 168 58 181 61 l23 5 -23 -28
c-13 -15 -29 -33 -34 -39 -29 -32 -115 -168 -139 -219 -52 -110 -30 -181 52
-171 42 5 140 53 193 95 20 16 41 29 47 29 6 0 12 3 14 8 2 4 35 32 73 62 39
30 86 68 105 86 43 38 264 231 304 265 16 13 43 38 61 54 35 33 126 113 164
145 41 34 152 133 183 163 16 15 30 27 32 27 2 0 17 12 33 28 17 15 56 50 88
77 32 28 75 66 96 85 35 32 112 100 165 147 50 43 159 140 182 160 13 12 49
44 79 70 30 26 82 73 114 104 32 30 59 53 59 51 0 -3 11 7 25 22 23 25 55 35
55 17 0 -18 116 -29 174 -17 87 20 170 104 193 196 14 53 -1 161 -26 193 -6 7
-26 30 -45 52 -36 43 -37 48 -21 157 16 108 84 259 157 348 55 67 93 111 121
140 15 16 27 33 27 39 0 6 5 11 10 11 6 0 14 8 17 18 4 9 19 35 34 57 14 22
29 52 33 67 3 15 12 33 19 40 36 36 45 59 37 94 -11 46 -37 74 -70 74 -35 0
-56 -18 -69 -62 -10 -30 -9 -42 3 -67 9 -16 25 -32 36 -36 11 -3 20 -10 20
-14 0 -23 -91 -143 -168 -221 -132 -134 -172 -177 -172 -185 0 -3 -11 -21 -24
-38 -46 -60 -96 -193 -111 -295 -5 -33 -15 -40 -16 -11 -1 25 -3 42 -15 99 -4
19 -8 44 -9 55 0 11 -3 25 -6 30 -18 34 -17 332 1 353 1 1 3 5 4 10 11 45 102
239 123 260 7 8 11 18 8 23 -4 5 -2 9 3 9 5 0 19 22 31 48 20 42 26 48 49 44
42 -6 76 32 68 76 -6 43 -13 50 -51 57 -45 9 -78 -25 -72 -74 4 -32 -14 -75
-43 -101 -14 -13 -50 -70 -50 -80 0 -5 -4 -10 -10 -10 -5 0 -10 -7 -10 -15 0
-8 -4 -15 -8 -15 -8 0 -39 -57 -40 -74 0 -5 -4 -12 -9 -15 -12 -8 -69 -139
-77 -176 -3 -16 -9 -41 -11 -55 -7 -33 -7 -164 0 -215 3 -22 10 -69 16 -105 6
-36 13 -86 15 -112 4 -42 2 -47 -18 -53 -119 -37 -196 -121 -203 -223 -2 -24
-5 -46 -9 -49 -3 -3 4 -28 14 -57 11 -28 20 -52 20 -54 0 -4 -153 -75 -160
-74 -3 0 -12 -5 -20 -13 -8 -7 -40 -24 -70 -39 -30 -14 -62 -30 -70 -36 -42
-26 -223 -132 -235 -136 -11 -5 -12 2 0 44 7 28 15 54 18 59 3 5 8 20 11 34 2
13 11 45 20 71 9 26 16 50 15 55 -1 4 1 17 5 28 21 56 27 72 30 90 2 11 20 79
40 151 20 71 38 139 40 149 2 11 11 43 19 70 16 50 106 391 112 423 1 9 9 37
16 62 13 49 14 50 23 95 8 43 37 157 44 175 3 8 7 25 9 37 2 13 19 86 38 163
19 77 35 148 35 158 0 10 3 22 7 25 3 4 8 17 9 29 4 28 12 63 14 63 1 0 3 8 5
19 2 10 8 39 14 65 6 25 13 57 15 71 2 14 9 43 14 65 6 22 14 54 16 70 3 17 8
40 11 53 5 21 9 38 20 92 3 14 8 36 11 50 5 24 10 52 19 95 2 11 4 20 5 20 1
0 3 9 5 20 1 11 6 36 9 55 4 19 9 46 12 60 2 14 13 72 24 130 11 58 23 118 26
134 3 16 6 32 8 35 2 3 7 26 10 51 3 25 8 56 11 70 3 14 8 41 11 60 3 19 7 46
10 60 23 135 34 200 38 225 2 17 5 30 6 30 1 0 3 14 5 30 8 75 20 163 29 210
5 27 13 89 21 170 2 17 6 46 9 65 4 19 8 58 11 85 2 28 7 75 10 105 4 30 8 75
10 100 2 25 4 45 5 45 1 0 3 23 5 50 1 28 7 102 11 165 5 63 9 255 9 425 -1
275 -5 373 -20 480 -3 17 -7 50 -10 75 -7 49 -49 244 -64 298 -5 18 -10 35
-10 37 -1 3 -1 6 -2 8 0 1 -3 13 -6 27 -6 31 -8 41 -16 60 -8 23 -49 149 -51
163 -2 7 -6 19 -9 27 -4 8 -20 53 -37 100 -39 106 -145 327 -194 403 -20 32
-36 62 -36 67 0 6 -4 10 -10 10 -5 0 -10 7 -10 15 0 8 -3 15 -8 15 -4 0 -18
18 -32 40 -14 22 -29 40 -34 40 -5 0 -7 3 -4 6 3 3 -4 15 -16 28 -11 12 -44
47 -72 77 -42 45 -128 125 -169 157 -84 65 -240 137 -352 162 -65 15 -202 19
-263 9z"/>
</g>
</svg>
