<svg width="48" height="48" viewBox="0 0 48 48" fill="none" xmlns="http://www.w3.org/2000/svg">
<path d="M10 42V28C10 26.9 10.3917 25.9583 11.175 25.175C11.9583 24.3917 12.9 24 14 24H16V20H14C12.9 20 11.9583 19.6083 11.175 18.825C10.3917 18.0417 10 17.1 10 16V10C10 8.9 10.3917 7.95833 11.175 7.175C11.9583 6.39167 12.9 6 14 6H34C35.1 6 36.0417 6.39167 36.825 7.175C37.6083 7.95833 38 8.9 38 10V16C38 17.1 37.6083 18.0417 36.825 18.825C36.0417 19.6083 35.1 20 34 20H32V24H34C35.1 24 36.0417 24.3917 36.825 25.175C37.6083 25.9583 38 26.9 38 28V42H34V36H14V42H10ZM14 16H34V10H14V16ZM20 24H28V20H20V24ZM14 32H34V28H14V32Z" fill="url(#paint0_linear_975_1538)"/>
<defs>
<linearGradient id="paint0_linear_975_1538" x1="24" y1="6" x2="24" y2="42" gradientUnits="userSpaceOnUse">
<stop stop-color="#DE5B30"/>
<stop offset="1" stop-color="#582D3E"/>
</linearGradient>
</defs>
</svg>
