<svg width="91" height="93" viewBox="0 0 91 93" fill="none" xmlns="http://www.w3.org/2000/svg">
<path d="M45.2903 2V8.82433" stroke="#582D3E" stroke-width="4" stroke-linecap="round" stroke-linejoin="round"/>
<path d="M65.2698 8.82428L68.5998 5.41211" stroke="#582D3E" stroke-width="4" stroke-linecap="round" stroke-linejoin="round"/>
<path d="M25.3107 8.82428L21.9807 5.41211" stroke="#582D3E" stroke-width="4" stroke-linecap="round" stroke-linejoin="round"/>
<path d="M88.5798 90.7153H72.9482C59.1698 90.7153 47.665 79.9499 46.4176 65.8894L45.6509 57.2484C45.4306 54.7654 46.6279 52.3751 48.7251 51.111C52.5275 48.8191 57.391 51.1468 58.1163 55.6056L59.942 66.8302" stroke="#582D3E" stroke-width="4" stroke-linecap="round" stroke-linejoin="round"/>
<path d="M88.5803 66.808H77.7612C74.4232 66.808 71.6007 64.276 71.1599 60.8857L66.9727 28.7055C66.2108 22.85 59.5802 19.9986 54.9682 23.543C53.0686 25.0028 51.9506 27.294 51.9506 29.7272V49.7472" stroke="#582D3E" stroke-width="4" stroke-linecap="round" stroke-linejoin="round"/>
<path d="M2 90.7153H17.6319C31.41 90.7153 42.9148 79.9499 44.1622 65.8894L44.9289 57.2484C45.1492 54.7654 43.9518 52.3751 41.8546 51.111C38.0523 48.8191 33.1887 51.1468 32.4635 55.6056L30.6378 66.8302" stroke="#582D3E" stroke-width="4" stroke-linecap="round" stroke-linejoin="round"/>
<path d="M2 66.8051H12.819C16.1569 66.8051 18.9794 64.2731 19.4205 60.8827L23.6078 28.7026C24.3698 22.847 31 19.9956 35.6121 23.5401C37.5117 24.9999 38.6297 27.2911 38.6297 29.7243V49.7443" stroke="#582D3E" stroke-width="4" stroke-linecap="round" stroke-linejoin="round"/>
</svg>
