<svg width="98" height="98" viewBox="0 0 98 98" fill="none" xmlns="http://www.w3.org/2000/svg">
<g clip-path="url(#clip0_234_2331)">
<path d="M28.5833 77.5833C33.0936 77.5833 36.75 73.927 36.75 69.4167C36.75 64.9063 33.0936 61.25 28.5833 61.25C24.073 61.25 20.4167 64.9063 20.4167 69.4167C20.4167 73.927 24.073 77.5833 28.5833 77.5833Z" stroke="#582D3E" stroke-width="2" stroke-linecap="round" stroke-linejoin="round"/>
<path d="M69.4167 77.5833C73.927 77.5833 77.5833 73.927 77.5833 69.4167C77.5833 64.9063 73.927 61.25 69.4167 61.25C64.9063 61.25 61.25 64.9063 61.25 69.4167C61.25 73.927 64.9063 77.5833 69.4167 77.5833Z" stroke="#582D3E" stroke-width="2" stroke-linecap="round" stroke-linejoin="round"/>
<path d="M20.4166 69.417H14.25C13.1454 69.417 12.25 68.5216 12.25 67.417V53.0837M8.16663 20.417H51.0833C52.1879 20.417 53.0833 21.3124 53.0833 22.417V69.417M36.75 69.417H61.25M77.5833 69.417H83.75C84.8545 69.417 85.75 68.5216 85.75 67.417V44.917M85.75 44.917H53.0833M85.75 44.917L74.0826 25.4713C73.7211 24.8689 73.0701 24.5003 72.3676 24.5003H53.0833" stroke="#582D3E" stroke-width="2" stroke-linecap="round" stroke-linejoin="round"/>
<path d="M19.6 68.5996H13.4333C12.3288 68.5996 11.4333 67.7042 11.4333 66.5996V52.2663M7.35001 19.5996H50.2667C51.3712 19.5996 52.2667 20.495 52.2667 21.5996V68.5996M36.75 68.5996H60.4333M78.4 68.5996H82.9333C84.0379 68.5996 84.9333 67.7042 84.9333 66.5996V44.0996M84.9333 44.0996H52.2667M84.9333 44.0996L73.266 24.654C72.9045 24.0515 72.2535 23.6829 71.551 23.6829H52.2667" stroke="#582D3E" stroke-width="4" stroke-linecap="round" stroke-linejoin="round"/>
<path d="M12.25 28.9541H28.5833" stroke="#582D3E" stroke-width="2" stroke-linecap="round" stroke-linejoin="round"/>
<path d="M4.45456 37.8633H20.7879" stroke="#582D3E" stroke-width="2" stroke-linecap="round" stroke-linejoin="round"/>
<path d="M12.25 46.7725H28.5833" stroke="#582D3E" stroke-width="2" stroke-linecap="round" stroke-linejoin="round"/>
</g>
<defs>
<clipPath id="clip0_234_2331">
<rect width="98" height="98" fill="white"/>
</clipPath>
</defs>
</svg>
