<svg width="218" height="295" viewBox="0 0 218 295" fill="none" xmlns="http://www.w3.org/2000/svg">
<path d="M112.153 290.092C108.357 270.24 104.404 250.5 101.284 230.465C98.2489 210.727 96.8079 190.695 96.9852 170.7C97.3751 132.599 102.817 94.6791 99.323 56.3534C97.8695 37.0093 93.2125 18.1729 85.6762 1.15574C85.5285 0.897024 85.3241 0.702258 85.0915 0.598596C84.859 0.494933 84.6097 0.487447 84.3786 0.577307C84.1475 0.667168 83.9461 0.849855 83.8022 1.09989C83.6584 1.34993 83.5794 1.65488 83.5761 1.97231L89.3992 57.25C91.3142 75.6944 92.8215 94.0486 94.9026 112.592C95.0312 115.331 98.4572 115.256 98.1651 112.471C96.2903 94.025 93.8567 75.7054 91.8562 57.1586L85.8316 1.88839C85.1469 1.91387 84.4845 2.41335 83.7719 2.70362C98.828 34.6383 98.8606 73.1455 96.0036 108.542C94.4188 128.067 92.3431 147.451 91.775 167.148C91.332 186.67 92.5905 206.267 95.5263 225.563C98.9672 247.795 103.395 269.788 108.787 291.43C109.441 294.202 112.566 292.872 112.032 290.096L112.153 290.092Z" fill="white"/>
<path d="M110.192 289.02C119.488 259.973 117.244 226.013 130.646 199.248C137.485 186.629 145.344 175.261 154.043 165.41C162.839 154.753 172.032 144.834 181.577 135.701C192.392 125.538 203.573 116.265 215.064 107.929C215.33 107.731 215.629 107.662 215.917 107.732C216.206 107.803 216.468 108.008 216.665 108.319C216.861 108.629 216.983 109.028 217.01 109.456C217.037 109.884 216.969 110.318 216.816 110.693C210.405 124.879 203.971 139.591 193.701 148.13C183.43 156.668 171.149 158.318 160.811 166.748C160.53 166.974 160.203 167.03 159.902 166.904C159.601 166.777 159.35 166.479 159.205 166.074C159.06 165.669 159.033 165.191 159.129 164.745C159.225 164.299 159.437 163.922 159.718 163.696C169.646 155.617 180.747 152.125 190.731 144.419C200.715 136.712 208.205 122.519 214.681 108.494C215.253 109.414 215.823 110.388 216.431 111.31C206.555 118.689 196.984 126.958 187.776 136.066C178.297 145.18 169.166 155.067 160.425 165.677C151.828 175.535 143.853 186.522 136.604 198.495C129.849 210.769 125.125 225.126 122.821 240.384C119.891 257.194 118.081 274.738 112.158 290.105C111.593 291.611 109.844 290.483 110.34 288.921L110.192 289.02Z" fill="white"/>
<path d="M96.3208 211.554C88.0805 201.783 80.4085 191.223 73.3728 179.966C67.0581 169.34 62.1102 157.473 58.7322 144.851C52.4288 121.452 50.2171 96.6889 44.0724 73.2322C40.9116 60.3348 35.849 48.2967 29.1753 37.81L27.1363 40.7871C47.4603 65.2711 60.4874 98.3025 63.7762 133.691C64.7269 143.727 64.7681 153.836 63.899 163.807C63.8359 164.159 63.8323 164.527 63.8885 164.887C63.9447 165.246 64.0593 165.587 64.2245 165.888C64.3897 166.189 64.6017 166.441 64.8458 166.629C65.0898 166.816 65.3602 166.933 65.6385 166.973C65.9169 167.013 66.1966 166.973 66.4584 166.858C66.7201 166.743 66.9579 166.554 67.1553 166.305C67.3527 166.056 67.5051 165.753 67.6021 165.415C67.6991 165.078 67.7384 164.715 67.7172 164.351C69.7019 127.978 61.7254 91.4388 45.2027 61.2155C40.5198 52.7385 35.1889 44.8928 29.2961 37.8055C27.7572 35.9637 25.9549 38.8265 27.2571 40.7826C39.9904 60.1961 44.2884 85.5679 48.4038 109.628C52.5191 133.687 57.2881 158.778 69.3483 179.324C77.0873 191.74 85.6355 203.267 94.8916 213.77C96.0056 215.153 97.5556 212.932 96.4416 211.55L96.3208 211.554Z" fill="white"/>
<path d="M111.692 288.895C108.908 278.067 104.303 268.122 98.2221 259.803C92.0874 250.921 85.3984 242.716 78.2284 235.279C62.2986 218.253 46.4626 200.643 29.4514 185.503C20.7155 177.27 11.183 170.629 1.12905 165.773C-0.0259022 165.235 -0.397952 167.623 0.75454 168.108C9.66793 172.434 18.1005 178.392 25.7936 185.797C33.5581 193.052 40.6143 201.546 48.0435 209.393L72.2779 234.867C79.1602 241.928 85.7271 249.505 91.9435 257.557C95.5086 262.215 98.7569 267.267 101.65 272.652C104.377 278.129 106.753 283.882 108.751 289.849C108.907 290.288 109.179 290.642 109.515 290.844C109.852 291.046 110.229 291.083 110.576 290.946C110.923 290.81 111.216 290.51 111.398 290.103C111.58 289.697 111.639 289.212 111.564 288.742L111.692 288.895Z" fill="white"/>
</svg>
