<svg width="31" height="15" viewBox="0 0 31 15" fill="none" xmlns="http://www.w3.org/2000/svg">
<path d="M1.41421 7.5L7.5 1.41421L13.5858 7.5L7.5 13.5858L1.41421 7.5Z" stroke="white" stroke-width="2"/>
<path d="M1.41421 7.5L7.5 1.41421L13.5858 7.5L7.5 13.5858L1.41421 7.5Z" stroke="white" stroke-width="2"/>
<path d="M1.41421 7.5L7.5 1.41421L13.5858 7.5L7.5 13.5858L1.41421 7.5Z" stroke="white" stroke-width="2"/>
<path d="M9.41421 7.5L15.5 1.41421L21.5858 7.5L15.5 13.5858L9.41421 7.5Z" stroke="white" stroke-width="2"/>
<path d="M9.41421 7.5L15.5 1.41421L21.5858 7.5L15.5 13.5858L9.41421 7.5Z" stroke="white" stroke-width="2"/>
<path d="M9.41421 7.5L15.5 1.41421L21.5858 7.5L15.5 13.5858L9.41421 7.5Z" stroke="white" stroke-width="2"/>
<path d="M17.4142 7.5L23.5 1.41421L29.5858 7.5L23.5 13.5858L17.4142 7.5Z" stroke="white" stroke-width="2"/>
<path d="M17.4142 7.5L23.5 1.41421L29.5858 7.5L23.5 13.5858L17.4142 7.5Z" stroke="white" stroke-width="2"/>
<path d="M17.4142 7.5L23.5 1.41421L29.5858 7.5L23.5 13.5858L17.4142 7.5Z" stroke="white" stroke-width="2"/>
</svg>
